<svg xmlns="http://www.w3.org/2000/svg" viewBox="0 0 2541.32 1519.9"><defs><style>.cls-1,.cls-8{opacity:0.3;}.cls-2{fill:#bfa564;}.cls-3{fill:#ffba9a;}.cls-4{fill:#1ec656;}.cls-5{fill:#007ba7;}.cls-16,.cls-5,.cls-9{opacity:0.6;}.cls-6{fill:#17a44a;}.cls-17,.cls-7{fill:#013d55;}.cls-12,.cls-8{fill:#fff;}.cls-9{fill:#056626;}.cls-10{fill:#22c659;}.cls-11{fill:#bf643a;}.cls-13{fill:#026824;}.cls-14{fill:#4ec676;}.cls-15{fill:#ff9498;opacity:0.4;}.cls-17{opacity:0.8;}.cls-18{fill:#251930;}.cls-19{fill:#fff2d2;}</style></defs><g id="Layer_2" data-name="Layer 2"><g id="OBJECTS"><g class="cls-1"><path class="cls-2" d="M727.34,1327.88c-28.6-11.08-55-24.28-78.44-39.92C476.52,1173.14,442.18,970.47,523.34,805.85,614.22,621.51,850.43,506.73,1082,486.09c240.35-21.43,483.1,47.29,685.19,157.63,113.94,62.21,220.34,140.83,277.27,243.84s55,234-31.85,321.41c-135.54,136.27-388.56,150.14-584.68,159.28C1200.31,1378.86,940.78,1410.61,727.34,1327.88Z"/></g><path class="cls-3" d="M350.54,859.63q-31.59-9-64-19.88a38.11,38.11,0,0,1-22.66-21c-12.55-28.84-42.82-86.47-43.53-60.24C219,807.65,237.68,886.76,256.56,935.9A60.17,60.17,0,0,0,285.3,968q36.06,18.39,71.53,34.3C362.92,955.63,362,910.6,350.54,859.63Z"/><path class="cls-4" d="M947.35,1067.57c-103.82,34.88-215.07,39.63-332.83,18.07-82.8-15.19-168.81-43.39-257.71-83.35,6.09-46.68,5.14-91.68-6.25-142.66Q526,909.74,676,902.26q137.9-6.75,254.74-61.15Z"/><path class="cls-5" d="M947.35,1067.57c-103.82,34.88-215.07,39.63-332.83,18.07C642,1029.07,664.79,964.5,676,902.26q137.9-6.75,254.74-61.15Z"/><path class="cls-6" d="M237.18,960.27l-89.75,20.35a29.58,29.58,0,0,1-35.19-21.48L57.53,746.47l152.18-33.55,49.73,211.74A29.59,29.59,0,0,1,237.18,960.27Z"/><path class="cls-7" d="M6.26,741.93l79.95-44.49-5.71-1.5q54.68,108.57,109.33,217.14,7.74,15.34,15.47,30.71c2.41,4.79,9.61.57,7.2-4.21L103.17,722.44,87.71,691.73a4.24,4.24,0,0,0-5.71-1.5L2.05,734.73c-4.69,2.61-.49,9.82,4.21,7.2Z"/><path class="cls-8" d="M221.23,943.56,157.81,957.9c-11,2.5-21.89-3.54-24.52-13.63l-36-138.38,115.28,1.84L237.31,920C239.77,930.43,232.55,941,221.23,943.56Z"/><path class="cls-3" d="M102.41,852.53c.71,9.56-17.57,16.76-26.28,17.4s-16.32-6.59-17-16.16,5.78-17.83,14.49-18.47S101.71,843,102.41,852.53Z"/><path class="cls-3" d="M113.37,877.6c2.61,10.22-13.55,21-21.8,23.07S74.51,896.2,71.91,886s2-20.21,10.23-22.31S110.77,867.38,113.37,877.6Z"/><path class="cls-3" d="M122.52,908.76c2.6,10.22-13.55,21-21.8,23.07s-17.06-4.47-19.67-14.69,2-20.21,10.23-22.31S119.91,898.54,122.52,908.76Z"/><path class="cls-9" d="M2484.53,691.55a163.92,163.92,0,0,1,16.93,231.2c-3,3.43-6.07,6.67-9.25,9.8L2377.39,815.61Z"/><path class="cls-10" d="M2377.39,815.61l114.82,116.94a163.9,163.9,0,1,1-127.75-280.33Z"/><path class="cls-3" d="M2364.46,652.22a163.37,163.37,0,0,1,120.07,39.33L2377.39,815.61Z"/><path class="cls-4" d="M2121.77,973.22a1427.82,1427.82,0,0,1-221.7,91c-91.57,28.65-181.49,45.67-260.32,47.09L1477.59,918.63l-72-85.59a635.89,635.89,0,0,0,89.82,31.33c106.16,28.65,215.06,30.28,316.31,19.45,106.36-11.33,204.3-36.3,281.85-58C2090.51,881.15,2100.39,930,2121.77,973.22Z"/><path class="cls-3" d="M2315.07,738.32c-12.32-1.92-49.07,17.66-77.62,34.34A369,369,0,0,1,2152.37,809c-17.93,5.12-37.64,10.83-58.87,16.78-3,55.37,6.88,104.28,28.26,147.44a1312.3,1312.3,0,0,0,142.66-84.37c6.84-14.05,5.07-34-5.83-60.09-3.59-8.63-1.58-18.88,5-24.36C2288,784.2,2332.51,741,2315.07,738.32Z"/><path class="cls-11" d="M2223.89,798a32.39,32.39,0,0,1-5.28,11.91c-2.05,3-5.73,8.3-9.45,9.46-10.7,3.34-1.86-20.51-.47-24.37.92-2.52-3.11-3.61-4-1.1-2.49,6.87-6,14-4.79,21.49.59,3.77,2.37,8.09,6.65,8.66,5,.67,9.56-4.36,12.46-7.79,4.17-5,7.65-10.74,8.92-17.15.52-2.62-3.5-3.74-4-1.11Z"/><path class="cls-11" d="M2262,840.07c-8.32,1.59-16.52,3.66-24.94,4.65-4.31.51-9.65,1.38-13.94.29-10.83-2.74,4.82-11.31,9.25-13,2.72-1.06,1.54-5.49-1.22-4.42-6.12,2.39-17.26,6.79-16.66,15.23.33,4.63,4.59,6.18,8.6,6.83,13.11,2.13,27.36-2.68,40.12-5.11,2.9-.56,1.67-5-1.21-4.43Z"/><path class="cls-11" d="M2264.09,859.87c-8.61,1.76-17.53,4.88-26.35,4.94a38.19,38.19,0,0,1-4-.14c-4.75-.47-4.88-.11-6.1-4.81s-.49-4.71,3-7.23c1.46-1,3-2,4.51-2.92,2.38-1.5.18-5.3-2.22-3.79-6.24,3.92-19,13-8.94,20.4,10.66,7.86,30.27,0,41.25-2.21,2.77-.57,1.6-4.8-1.17-4.24Z"/><path class="cls-11" d="M2265.13,884.93c-8.69-.45-17.46-.54-26.13-1.36-4.72-.45-10.19-4-5.69-9a22,22,0,0,1,7.7-5.45c2.46-1.07.33-4.66-2.11-3.61-5.81,2.53-16.81,11.47-10.68,18.56,2.43,2.81,6.68,3.3,10.14,3.65,8.87.9,17.87.95,26.77,1.42,2.68.14,2.67-4,0-4.18Z"/><path class="cls-5" d="M1900.07,1064.21c-91.57,28.65-181.49,45.67-260.32,47.09L1477.59,918.63l17.78-54.26c106.16,28.65,215.06,30.28,316.31,19.45C1831.57,951.32,1861.57,1012.55,1900.07,1064.21Z"/><path class="cls-6" d="M226.23,123V348.16A58.88,58.88,0,0,0,285.1,407H582a58.89,58.89,0,0,0,58.9-58.87V123A58.89,58.89,0,0,0,582,64.16H285.1A58.88,58.88,0,0,0,226.23,123Z"/><path class="cls-12" d="M226.23,123v18.62H640.92V123A58.89,58.89,0,0,0,582,64.16H285.1A58.88,58.88,0,0,0,226.23,123Z"/><circle class="cls-12" cx="316.52" cy="205.33" r="20.5" transform="translate(62.85 484.61) rotate(-80.72)"/><path class="cls-12" d="M299.07,236.84H334a17.6,17.6,0,0,1,17.6,17.6v17.25a0,0,0,0,1,0,0H281.47a0,0,0,0,1,0,0V254.44A17.6,17.6,0,0,1,299.07,236.84Z"/><rect class="cls-12" x="281.32" y="309.8" width="78.17" height="9.51"/><rect class="cls-12" x="281.32" y="328.67" width="54.21" height="9.51"/><rect class="cls-12" x="281.32" y="347.53" width="72.48" height="9.51"/><rect class="cls-12" x="410.25" y="319.42" width="208.95" height="9.51"/><rect class="cls-12" x="409.98" y="338.29" width="117.81" height="9.51"/><rect class="cls-12" x="410.18" y="176.61" width="173.7" height="103.27" rx="11.46"/><path class="cls-7" d="M278.42,118.88a14.6,14.6,0,1,1,14.6-14.6A14.62,14.62,0,0,1,278.42,118.88Zm0-27.11a12.52,12.52,0,1,0,12.51,12.51A12.52,12.52,0,0,0,278.42,91.77Z"/><path class="cls-7" d="M330.56,118.88a14.6,14.6,0,1,1,14.6-14.6A14.62,14.62,0,0,1,330.56,118.88Zm0-27.11a12.52,12.52,0,1,0,12.52,12.51A12.52,12.52,0,0,0,330.56,91.77Z"/><path class="cls-6" d="M653.45,423.9c-28.74,37.37-69.27,65.7-118.05,87.7C637.7,677.29,850.17,877.3,983.8,908.74l275.94-134.82C994.73,740.66,784.3,552.33,653.45,423.9Z"/><path class="cls-3" d="M653.45,423.9c-18.21-17.87-34.89-34.59-50-49.56-22.23-22.11-40.43-41.32-56.81-68.4-17.29-28.61-36.77-59.59-48.74-64.22-16.94-6.57,3.52,42.82,15.36,72.27,3.21,8-7.12,17.65-14.59,23.12-22.67,16.56-34.08,32.5-34.9,47.85C485,426.32,509.11,469,535.4,511.6,584.18,489.6,624.71,461.27,653.45,423.9Z"/><path class="cls-11" d="M551.27,336.73a39.92,39.92,0,0,0-3.65,19.55c.21,4.69.65,11.63,5.16,14.35,4.3,2.6,9.09-.61,12-3.84,4.92-5.43,6.48-12.92,8.65-19.69.84-2.64-3.3-3.77-4.14-1.15-1.33,4.17-2.34,8.53-4.2,12.5s-8.12,13.17-11.82,5.85c-3.45-6.83-1.55-18.91,1.69-25.4,1.23-2.47-2.47-4.64-3.71-2.17Z"/><path class="cls-11" d="M494,352c8.84,9.93,17.11,22,28.78,28.81,3.62,2.12,8.39,3.82,11.68.24,5.86-6.41-.21-16.94-3.73-22.75-1.57-2.59-5.65-.22-4.07,2.38,2,3.27,10.24,19.58,1.08,17.37-4.58-1.1-9.06-6.14-12.29-9.26-6.51-6.31-12.1-13.37-18.12-20.12-2-2.27-5.35,1.07-3.33,3.33Z"/><path class="cls-11" d="M480,366.71c7.76,8.94,18.2,26.71,31.88,27.4,12.92.64,8.38-14.89,5.78-21.93-1-2.7-5.36-1.53-4.35,1.2,1.13,3.09,2.52,6.31,2.94,9.6,1.15,9-7.3,6.25-12.07,3.06-8.48-5.66-14.39-14.93-21-22.53-1.91-2.2-5.1,1-3.2,3.2Z"/><path class="cls-11" d="M464.41,387.05c7.21,5,14.27,10.17,21.61,14.91,3.54,2.28,8.29,5.31,12.69,3.63,8.2-3.12,4.65-16.26,1.58-21.75-1.35-2.41-5.06-.25-3.7,2.17a20.78,20.78,0,0,1,2.74,9.49c0,3.62-.39,6.79-5.58,5.8-1.68-.32-3.5-1.76-4.93-2.64-7.64-4.71-14.85-10.23-22.24-15.32-2.28-1.57-4.43,2.15-2.17,3.71Z"/><polygon class="cls-6" points="1813.03 234.36 2097.95 429.15 2248.1 209.22 1959.59 26.15 1813.03 234.36"/><path class="cls-12" d="M1836.54,229.12C1935.11,299.36,2027.09,375,2091,392c43.84-25.86,92.8-111.85,131.76-186l-256.71-161Z"/><polygon class="cls-13" points="1891 169.08 1934.17 111.76 1883.17 77.26 1845.24 130.57 1891 169.08"/><rect class="cls-13" x="1905.69" y="169.87" width="139.9" height="25.93" transform="translate(701.2 1703.49) rotate(-55.32)"/><rect class="cls-6" x="1920.74" y="210.21" width="202.07" height="9.11" transform="matrix(0.57, -0.82, 0.82, 0.57, 694.84, 1755.2)"/><rect class="cls-6" x="1953.44" y="247.93" width="145.63" height="9.11" transform="translate(665.75 1775.14) rotate(-55.32)"/><rect class="cls-6" x="1961.91" y="237.9" width="202.58" height="10.75" transform="translate(689.25 1801.55) rotate(-55.32)"/><rect class="cls-14" x="1989.22" y="265.45" width="172.13" height="9.09" transform="translate(672.48 1823.01) rotate(-55.32)"/><rect class="cls-14" x="2028.59" y="315.39" width="85.42" height="9.11" transform="translate(629.68 1841.26) rotate(-55.32)"/><path class="cls-3" d="M1966.86,464.15q14.55-35.62,27.9-73.86a44.24,44.24,0,0,0-15.6-50c-11.74-8.7-25.92-15.94-42.35-21.83,0,0,21.19-73.52,5.84-74.1s-43.18,78.85-43.18,78.85a760.78,760.78,0,0,1-44.39,77C1885.15,429.14,1922.51,450.36,1966.86,464.15Z"/><path class="cls-6" d="M1855.08,400.14c-99.4,151.87-271.18,303.79-497.85,361l36.69,88.57,212.95,51.44c154.46-83.32,273.49-225.14,360-436.95C1922.51,450.36,1885.15,429.14,1855.08,400.14Z"/><path class="cls-11" d="M1954.18,347.7c11.28,10.78,14.94,31.56,9.75,46-.92,2.53,3.11,3.62,4,1.11,5.69-15.8,1.49-38.27-10.82-50-2-1.86-4.9,1.09-3,2.95Z"/><polygon class="cls-3" points="1358.23 747.71 1272.8 817.58 1174.48 750.84 1186.08 583.28 1347.3 627.79 1348.13 636.76 1355.1 713.26 1358.23 747.71"/><path class="cls-7" d="M1355.1,713.26c-48-13.43-95.4-36.17-128.06-98l121.1,21.49Z"/><path class="cls-3" d="M1412.92,589.87c-.25,33.33-10.89,60.23-48.56,73.37-56.65,19.82-126.18-31.28-177.61-80l19.43-130.69,69.54-50,122.35,38.91c-1.38,28.54,3.83,58.78,8.46,87.64C1410,550.53,1413,571.22,1412.92,589.87Z"/><path class="cls-7" d="M1201.33,517.94c13.16-37.13,34.11-65.57,69.52-77.86,76.09,29.67,134.88,41,193.28-20.86,0,0-39.63,15.3-99.42-51.45-51.09-57-160.6-11.12-172.42,17.38,0,0-88.29,18.78-36.15,118.89Z"/><path class="cls-3" d="M1222.51,525.31c-22.94-26.07-66.74-38.58-83.43-8.34s15,71.61,52.84,70.22S1222.51,525.31,1222.51,525.31Z"/><path class="cls-7" d="M1156.13,534.89c14.21-.93,26.65,6.72,31.71,20.11.94,2.49,5,1.41,4-1.11-5.69-15.06-19.58-24.23-35.73-23.17-2.66.17-2.68,4.34,0,4.17Z"/><circle class="cls-7" cx="1307.7" cy="524.55" r="8.69"/><circle class="cls-7" cx="1363.84" cy="523.68" r="8.69"/><path class="cls-7" d="M1337.56,536.41c4.22,4.42,8.51,8.78,12.66,13.26,3.35,3.61,7.51,6.64,4.26,12.77-2.28,4.28-8.11,5.86-12.27,7.22-2.54.83-1.45,4.86,1.11,4,7.26-2.38,17.12-6.57,16.65-15.88-.2-3.82-2.58-6.5-5-9.2-4.64-5.2-9.66-10.11-14.48-15.15-1.85-1.94-4.8,1-2.94,2.95Z"/><path class="cls-12" d="M1308.05,590.25l54.23,3.12S1337.77,646,1308.05,590.25Z"/><path class="cls-7" d="M1317.94,499.29c-4.27,1.07-8.73.8-13,2a97.32,97.32,0,0,1-10.51,2.38c-2.92.45-13.46,2.23-12-5.14.81-4,6.64-6.61,9.65-7.1,6.89-1.11,13.74-2.15,20.62-3.33,4.15-.72,12.55,3.25,7.83,9.6A4.51,4.51,0,0,1,1317.94,499.29Z"/><path class="cls-7" d="M1352.11,500.62c4.17.83,8.27.46,12.47,1.37,3.38.73,6.79,1.41,10.19,1.8,2.79.31,12.91,1.58,10.25-4.9-1.44-3.51-7.32-5.65-10.2-6-6.61-.79-13.16-1.51-19.77-2.36-4-.51-11.12,3.24-5.64,8.72A5.12,5.12,0,0,0,1352.11,500.62Z"/><circle class="cls-15" cx="1270.24" cy="561.82" r="30.67"/><path class="cls-15" d="M1412.92,589.87a28.31,28.31,0,0,1-5.72.54,30.66,30.66,0,0,1-.67-61.32C1410,550.53,1413,571.22,1412.92,589.87Z"/><path class="cls-4" d="M1366.1,744.59c71.77,21.73,120.49,33.61,185.36,72.4,68.51,41,116.23,121.44,147.65,194.56,40.35,93.89,88,223.41,75.09,287.82l-35.46,178H914.2l50.06-137.65-90.38-59.79,141.83-390.72L1204.81,746,1282,769.61Z"/><rect class="cls-7" x="1563.54" y="983.34" width="4.17" height="192.69" transform="translate(-277.06 609.13) rotate(-20.27)"/><path class="cls-12" d="M1308.4,817.58l-26.42-48,73.26-56.31c9,8.15,33.65,29.28,45.1,41.45C1375.2,782.84,1345.81,805.41,1308.4,817.58Z"/><path class="cls-4" d="M1139.6,1261.15c-176.95-19.18-230.4-4.88-230.4-4.88l100.4-254.45,196.31-236.38L1140,742.5l-111.91,37.24c-111.33,37-198.91,119.8-238.39,225.07-45.44,121.14-93.65,272.52-75,327.94,26.35,78.17,106.72,101.15,382.08,48.71C1081.49,1344.55,1099.15,1285.78,1139.6,1261.15Z"/><path class="cls-3" d="M1170,1264.61c-10.53-1.27-20.59-2.4-30.35-3.46-40.45,24.63-58.11,83.4-42.79,120.31l8.36-1.59a177.82,177.82,0,0,1,66.25-.21c37.13,6.91,93.71,17.57,109.42,21.22,24,5.56,48,5.56,58.44-4.17S1345.65,1285.82,1170,1264.61Z"/><path class="cls-12" d="M1282,769.61c-33-19.31-74.42-50.55-107.41-69.87L1136,742.5c23.64,30.59,66,64,101.5,80Z"/><path class="cls-11" d="M1302.09,1402.6q-40.14-21.88-80.24-43.85c-2.36-1.28-4.47,2.32-2.1,3.61q40.14,21.87,80.24,43.84c2.36,1.28,4.46-2.32,2.1-3.6Z"/><path class="cls-11" d="M1329,1400.52c-21.78-31.35-56.52-51.15-89-69.58-2.34-1.32-4.45,2.28-2.11,3.61,31.87,18,66.21,37.35,87.55,68.08,1.52,2.19,5.13.1,3.6-2.11Z"/><path class="cls-11" d="M1343.38,1384.85a265,265,0,0,0-92.78-78c-2.39-1.21-4.5,2.38-2.11,3.6a260.56,260.56,0,0,1,91.29,76.53c1.59,2.13,5.21,0,3.6-2.1Z"/><path class="cls-16" d="M993.83,1042.86c21.53,19.93,45.47,42.1,75.77,46.29,22.23,3.07,49.16-4,60.18-25.32,8.45-16.39,3.35-39.57-11.38-50.76-17.67-13.44-39.83-2-47.86,16.48-9.48,21.83,2.1,44.22,21,56.44,27.56,17.86,62.08,12,92.33,5.79,24.42-5,54.48-13.22,64.67-38.86,6.87-17.3,3.29-42.26-17-48.38-20.13-6.06-41.68,12-43.78,31.77-2.76,26,19.44,47.35,42.38,54.76,27.14,8.76,62.86,6.33,89.65-3.13,21.34-7.54,38.72-24.47,36.89-48.49-1.49-19.5-18.61-35.15-38.37-27.06-22,9-28.37,35.49-16.48,54.95,15.53,25.4,46.6,30.91,74.09,28.8,26.92-2.06,63.18-5.46,81.69-27.86,12.69-15.36,16.32-43.58-3.29-55.28-16.7-10-40.32.3-48,17.15-10,22,5.86,47.65,26.08,56.93,27.5,12.61,59.1.37,81.45-16.88,12.46-9.62,23.32-21.08,34.11-32.47,1.85-2-1.1-4.91-2.95-3-16.08,17-32.68,34.65-54.07,45-21.88,10.55-50.53,12.78-69.36-5-16.3-15.41-20.5-43.14.8-56.28,21.61-13.33,45.65,2.66,41,27.92-4.36,23.88-27.08,34.94-48.62,39.85-23.55,5.36-50.8,9.72-74.55,3.51-21.05-5.51-45.67-25.69-39.85-50.21,5.27-22.22,37.4-36.75,49.2-11.42,8.66,18.59-1,39.12-17.35,49.41-18.71,11.76-43.47,13.7-65,14.07-23.2.4-48-4.15-63.83-22.56-15.41-17.86-16.2-45.74,6.64-57.84,23.66-12.54,41.56,10.54,36.84,33.06s-26.09,33.63-46.44,39.38c-22.69,6.41-48.1,11.7-71.72,9.91-22.49-1.7-47.69-13-55.52-35.94-7.24-21.19,10.3-54.09,36-44.95,19.77,7,26,35.58,15.33,52.18-12.82,20-40.74,24.19-62.13,18.67-25.91-6.7-46.4-25.88-65.5-43.57-2-1.82-4.93,1.12-2.95,2.95Z"/><path class="cls-17" d="M1138.85,1263.1c-108.37-41.8-226.25-42.28-227.43-42.28h-3.23L1007.7,1001l3.8,1.72-96.86,214c19.73.4,126.66,4.31,225.71,42.51Z"/><path class="cls-7" d="M941.17,1404.28l-1.1-4c30.41-8.3,151.4-20.36,156.54-20.88l.41,4.16C1095.76,1383.66,971.24,1396.08,941.17,1404.28Z"/><path class="cls-6" d="M1338.29,122.51C1338.29,54.85,1277.59,0,1202.72,0s-135.57,54.85-135.57,122.51S1127.85,245,1202.72,245a149.47,149.47,0,0,0,30.63-3.18c20.28,16.54,48.63,38.34,48.63,38.34l-9-52.89C1312.15,205.8,1338.29,166.92,1338.29,122.51Z"/><path class="cls-12" d="M1163.13,136.72l38.2,35c2.42,2.21,7.46,2.42,9-1.16,13.4-31.35,33-59,57.4-82.74,5.29-5.15-2.8-13.24-8.09-8.09-25,24.37-45.44,52.86-59.19,85.06l9-1.16-38.2-35c-5.42-5-13.54,3.1-8.1,8.09Z"/><rect x="1172.48" y="1406.48" width="329.54" height="35.41"/><polygon class="cls-12" points="1791.97 1441.9 1396.08 1441.9 1530.56 1100.41 1926.45 1100.41 1791.97 1441.9"/><path class="cls-18" d="M1695.24,1300.28h-64.91l22.11-58.3h64.92Zm-59.26-3.9h56.57l19.16-50.5h-56.57Z"/><rect class="cls-19" x="641.14" y="1441.2" width="1305.63" height="78.7"/><rect class="cls-7" x="641.14" y="1440.64" width="1304.24" height="3.9"/><path class="cls-2" d="M415.73,1349.81a22.79,22.79,0,0,1-16.11-6.61,22.54,22.54,0,0,1,0-32,22.93,22.93,0,0,1,32.22,0h0a22.54,22.54,0,0,1,0,32A22.79,22.79,0,0,1,415.73,1349.81Zm0-42.43a20,20,0,0,0-14.12,5.8,19.69,19.69,0,0,0,0,28,20.08,20.08,0,0,0,28.24,0,19.69,19.69,0,0,0,0-28h0A20,20,0,0,0,415.73,1307.38Z"/><path class="cls-2" d="M900.7,279.56A22.78,22.78,0,0,1,884.59,273a22.53,22.53,0,0,1,0-32,22.91,22.91,0,0,1,32.22,0h0a22.55,22.55,0,0,1,0,32A22.79,22.79,0,0,1,900.7,279.56Zm0-42.43a20,20,0,0,0-14.12,5.8,19.7,19.7,0,0,0,0,28,20.09,20.09,0,0,0,28.24,0,19.7,19.7,0,0,0,0-28h0A20,20,0,0,0,900.7,237.13Z"/><path class="cls-2" d="M2192.9,1261.11a22.82,22.82,0,0,1-16.11-6.62,22.53,22.53,0,0,1,0-32,22.93,22.93,0,0,1,32.22,0,22.53,22.53,0,0,1,0,32A22.79,22.79,0,0,1,2192.9,1261.11Zm0-42.44a20,20,0,0,0-14.12,5.8,19.7,19.7,0,0,0,0,28,20.1,20.1,0,0,0,28.25,0,19.72,19.72,0,0,0,0-28A20,20,0,0,0,2192.9,1218.67Z"/><path class="cls-2" d="M2192.74,600h-36.19V563.81h36.19Zm-33.37-2.82h30.55V566.63h-30.55Z"/><path class="cls-2" d="M1615.69,321.76l-25.59-25.59,25.59-25.59,25.59,25.59Zm-21.61-25.59,21.61,21.6,21.6-21.6-21.6-21.61Z"/><path class="cls-2" d="M387.65,684.39,362.06,658.8l25.59-25.59,25.59,25.59Zm-21.6-25.59,21.6,21.6,21.6-21.6-21.6-21.61Z"/></g></g></svg>